<svg xmlns="http://www.w3.org/2000/svg" viewBox="0 0 128 128">
  <defs>
    <linearGradient id="g" x1="0" x2="1" y1="0" y2="1">
      <stop offset="0" stop-color="#ffffff"/>
      <stop offset="1" stop-color="#f5f5f7"/>
    </linearGradient>
  </defs>
  <rect x="8" y="8" width="112" height="112" rx="28" fill="url(#g)" stroke="#d1d5db" stroke-width="4"/>
  <path d="M64 28c-10 0-18 8-18 18v3c-6 3-10 9-10 16v23c0 7 6 13 13 13h30c7 0 13-6 13-13V65c0-7-4-13-10-16v-3c0-10-8-18-18-18Zm0 10c5 0 8 3 8 8v3H56v-3c0-5 3-8 8-8Zm-14 25h28c7 0 12 5 12 12v13c0 3-3 6-6 6H44c-3 0-6-3-6-6V75c0-7 5-12 12-12Z" fill="#111827"/>
</svg>